<svg xmlns="http://www.w3.org/2000/svg" viewBox="0 0 48 48">
  <rect width="48" height="48" rx="10" fill="#f05032"/>
  <path d="M26.8 8.9 39.1 21.2a4 4 0 0 1 0 5.6L26.8 39.1a4 4 0 0 1-5.6 0L8.9 26.8a4 4 0 0 1 0-5.6L21.2 8.9a4 4 0 0 1 5.6 0Z" fill="#f05032" stroke="#fff" stroke-width="2"/>
  <path d="M18.8 15.3v11a4 4 0 1 0 3 0v-5.6l6.1 6.1a4 4 0 1 0 2.1-2.1l-7-7" fill="none" stroke="#fff" stroke-width="2.4" stroke-linecap="round" stroke-linejoin="round"/>
  <circle cx="18.8" cy="30.1" r="2" fill="#fff"/>
  <circle cx="30.9" cy="27" r="2" fill="#fff"/>
</svg>
