<svg width="1280" height="800" viewBox="0 0 1280 800" fill="none" xmlns="http://www.w3.org/2000/svg">
  <rect width="1280" height="800" fill="#07080B"/>
  <defs>
    <linearGradient id="bg" x1="42" y1="39" x2="1147" y2="764" gradientUnits="userSpaceOnUse">
      <stop stop-color="#101A2D"/>
      <stop offset=".52" stop-color="#080A10"/>
      <stop offset="1" stop-color="#2A0818"/>
    </linearGradient>
    <linearGradient id="screen" x1="330" y1="118" x2="914" y2="610" gradientUnits="userSpaceOnUse">
      <stop stop-color="#151C2B"/>
      <stop offset="1" stop-color="#050609"/>
    </linearGradient>
    <linearGradient id="hot" x1="894" y1="154" x2="1098" y2="516" gradientUnits="userSpaceOnUse">
      <stop stop-color="#FF52A5"/>
      <stop offset="1" stop-color="#A0185B"/>
    </linearGradient>
    <filter id="glow" x="228" y="34" width="812" height="682" filterUnits="userSpaceOnUse">
      <feGaussianBlur stdDeviation="42"/>
    </filter>
  </defs>
  <rect x="38" y="38" width="1204" height="724" rx="44" fill="url(#bg)" stroke="rgba(255,255,255,.10)" stroke-width="2"/>
  <g opacity=".14">
    <path d="M92 174H1188M92 312H1188M92 450H1188M92 588H1188" stroke="#F23987"/>
    <path d="M204 98V704M384 98V704M564 98V704M744 98V704M924 98V704" stroke="#6EA2FF"/>
  </g>
  <text x="116" y="164" fill="#FFFFFF" font-family="Georgia, serif" font-size="72" font-weight="700">BWC</text>
  <rect x="116" y="194" width="258" height="174" rx="24" fill="rgba(6,8,14,.92)" stroke="rgba(242,57,135,.48)"/>
  <text x="148" y="236" fill="#FF8BC8" font-family="Verdana, sans-serif" font-size="16" font-weight="700" letter-spacing="1.3">REMOTE CONSOLE</text>
  <text x="148" y="284" fill="#FFFFFF" font-family="Verdana, sans-serif" font-size="27" font-weight="700">Server UI</text>
  <text x="148" y="319" fill="rgba(255,255,255,.9)" font-family="Verdana, sans-serif" font-size="17" font-weight="600">Live logs</text>
  <text x="148" y="346" fill="rgba(255,255,255,.82)" font-family="Verdana, sans-serif" font-size="17" font-weight="600">Commands and tools</text>
  <g filter="url(#glow)" opacity=".55">
    <rect x="420" y="116" width="540" height="468" rx="38" fill="#F23987"/>
  </g>
  <rect x="402" y="128" width="562" height="460" rx="38" fill="url(#screen)" stroke="rgba(255,255,255,.14)" stroke-width="2"/>
  <rect x="402" y="128" width="562" height="62" rx="38" fill="rgba(255,255,255,.05)"/>
  <circle cx="448" cy="160" r="8" fill="#F23987"/>
  <circle cx="478" cy="160" r="8" fill="rgba(255,255,255,.28)"/>
  <circle cx="508" cy="160" r="8" fill="rgba(255,255,255,.16)"/>
  <rect x="438" y="224" width="220" height="18" rx="9" fill="#F23987"/>
  <rect x="438" y="270" width="360" height="14" rx="7" fill="rgba(255,255,255,.34)"/>
  <rect x="438" y="306" width="316" height="14" rx="7" fill="rgba(255,255,255,.22)"/>
  <rect x="438" y="342" width="252" height="14" rx="7" fill="rgba(255,255,255,.16)"/>
  <rect x="438" y="408" width="450" height="104" rx="20" fill="#0B111D" stroke="rgba(242,57,135,.34)"/>
  <text x="470" y="455" fill="#FF65B0" font-family="Consolas, monospace" font-size="25" font-weight="700">&gt; server status --live</text>
  <text x="470" y="488" fill="rgba(255,255,255,.82)" font-family="Consolas, monospace" font-size="20">online  players: 128  ping: 24ms</text>
  <rect x="1000" y="164" width="144" height="82" rx="24" fill="url(#hot)"/>
  <text x="1038" y="214" fill="#08090E" font-family="Verdana, sans-serif" font-size="19" font-weight="800">LIVE</text>
  <rect x="1000" y="286" width="144" height="82" rx="24" fill="rgba(255,255,255,.06)" stroke="rgba(255,255,255,.14)"/>
  <text x="1030" y="336" fill="#FF75BA" font-family="Verdana, sans-serif" font-size="20" font-weight="800">CPU</text>
  <rect x="1000" y="408" width="144" height="82" rx="24" fill="rgba(255,255,255,.06)" stroke="rgba(255,255,255,.14)"/>
  <text x="1034" y="458" fill="#FF75BA" font-family="Verdana, sans-serif" font-size="20" font-weight="800">LOGS</text>
</svg>
