<svg width="1280" height="800" viewBox="0 0 1280 800" fill="none" xmlns="http://www.w3.org/2000/svg">
  <rect width="1280" height="800" fill="#0B0D10"/>
  <defs>
    <linearGradient id="bg" x1="64" y1="56" x2="1120" y2="734" gradientUnits="userSpaceOnUse">
      <stop stop-color="#101827"/>
      <stop offset=".55" stop-color="#101217"/>
      <stop offset="1" stop-color="#24170B"/>
    </linearGradient>
    <linearGradient id="card" x1="774" y1="226" x2="1015" y2="628" gradientUnits="userSpaceOnUse">
      <stop stop-color="#252E3A"/>
      <stop offset="1" stop-color="#151A22"/>
    </linearGradient>
  </defs>
  <circle cx="1110" cy="118" r="280" fill="#C9A96E" fill-opacity=".18"/>
  <circle cx="150" cy="130" r="286" fill="#7FA5FF" fill-opacity=".08"/>
  <rect x="38" y="38" width="1204" height="724" rx="44" fill="url(#bg)" stroke="rgba(255,255,255,.10)" stroke-width="2"/>
  <g opacity=".13">
    <path d="M92 174H1188M92 312H1188M92 450H1188M92 588H1188" stroke="#C9A96E"/>
    <path d="M204 98V704M384 98V704M564 98V704M744 98V704M924 98V704" stroke="#6EA2FF"/>
  </g>
  <rect x="116" y="116" width="1014" height="78" rx="22" fill="rgba(18,23,30,.92)" stroke="rgba(255,255,255,.08)"/>
  <text x="152" y="165" fill="#F5EDE0" font-family="Georgia, serif" font-size="34" font-weight="700">Mebel<tspan fill="#C9A96E">Dor</tspan></text>
  <text x="548" y="161" fill="rgba(245,237,224,.62)" font-family="Verdana, sans-serif" font-size="14" font-weight="700" letter-spacing="2">ABOUT   CATALOG   PROCESS</text>
  <rect x="986" y="132" width="118" height="36" rx="18" fill="#C9A96E"/>
  <text x="1017" y="155" fill="#100D08" font-family="Verdana, sans-serif" font-size="12" font-weight="700" letter-spacing="2">ESTIMATE</text>
  <rect x="116" y="230" width="500" height="154" rx="24" fill="rgba(8,10,14,.84)" stroke="rgba(201,169,110,.42)"/>
  <text x="150" y="272" fill="#E8C98A" font-family="Verdana, sans-serif" font-size="17" font-weight="700" letter-spacing="1.6">SOLID WOOD · SINCE 2003</text>
  <text x="150" y="320" fill="#FFFFFF" font-family="Verdana, sans-serif" font-size="28" font-weight="700">Custom furniture brand</text>
  <text x="150" y="354" fill="rgba(255,255,255,.88)" font-family="Verdana, sans-serif" font-size="17" font-weight="600">Landing page · catalog · conversion flow</text>
  <text x="116" y="470" fill="#F5EDE0" font-family="Georgia, serif" font-size="72">Custom furniture</text>
  <text x="116" y="548" fill="#F5EDE0" font-family="Georgia, serif" font-size="72">for your interior</text>
  <rect x="760" y="224" width="332" height="354" rx="32" fill="url(#card)" stroke="rgba(255,255,255,.10)"/>
  <rect x="794" y="260" width="264" height="136" rx="22" fill="#2C241A"/>
  <path d="M845 352c38-66 89-66 130 0" stroke="#C9A96E" stroke-width="10" stroke-linecap="round"/>
  <path d="M853 338c32-27 75-28 114 0" stroke="#F5EDE0" stroke-opacity=".36" stroke-width="8" stroke-linecap="round"/>
  <rect x="794" y="424" width="264" height="32" rx="16" fill="rgba(255,255,255,.10)"/>
  <rect x="794" y="478" width="206" height="24" rx="12" fill="rgba(255,255,255,.08)"/>
  <rect x="794" y="526" width="152" height="42" rx="21" fill="#C9A96E"/>
</svg>
