<svg xmlns="http://www.w3.org/2000/svg" width="1200" height="630" viewBox="0 0 1200 630" role="img" aria-labelledby="title desc">
  <title id="title">dmbzzr portfolio</title>
  <desc id="desc">Portfolio share banner for UI/UX, branding, visual systems, and web interface case studies.</desc>
  <defs>
    <linearGradient id="bg" x1="0" y1="0" x2="1" y2="1">
      <stop offset="0" stop-color="#181818"/>
      <stop offset="0.56" stop-color="#222"/>
      <stop offset="1" stop-color="#101010"/>
    </linearGradient>
    <linearGradient id="accent" x1="0" y1="0" x2="1" y2="1">
      <stop offset="0" stop-color="#f23987"/>
      <stop offset="1" stop-color="#ff79b0"/>
    </linearGradient>
    <pattern id="grid" width="48" height="48" patternUnits="userSpaceOnUse">
      <path d="M 48 0 L 0 0 0 48" fill="none" stroke="rgba(255,255,255,0.055)" stroke-width="1"/>
    </pattern>
  </defs>
  <rect width="1200" height="630" fill="url(#bg)"/>
  <rect width="1200" height="630" fill="url(#grid)"/>
  <path d="M932 0h268v630H738c104-72 165-158 182-258 21-124-24-245 12-372Z" fill="#f23987" opacity="0.12"/>
  <path d="M74 92h1052v446H74z" fill="none" stroke="rgba(255,255,255,0.14)" stroke-width="2"/>
  <path d="M74 164h1052" stroke="rgba(255,255,255,0.1)" stroke-width="2"/>
  <circle cx="118" cy="128" r="10" fill="#f23987"/>
  <circle cx="152" cy="128" r="10" fill="rgba(255,255,255,0.28)"/>
  <circle cx="186" cy="128" r="10" fill="rgba(255,255,255,0.16)"/>
  <text x="92" y="360" fill="#f2f2f2" font-family="Inter, Arial, sans-serif" font-size="112" font-weight="800" letter-spacing="0">dmbzzr</text>
  <rect x="495" y="338" width="24" height="24" rx="3" fill="url(#accent)"/>
  <text x="96" y="424" fill="#ff79b0" font-family="JetBrains Mono, Consolas, monospace" font-size="26" letter-spacing="2">UI/UX DESIGNER | VISUAL SYSTEMS | BRANDING</text>
  <g transform="translate(820 238)">
    <rect width="238" height="152" rx="8" fill="rgba(255,255,255,0.06)" stroke="rgba(255,255,255,0.16)"/>
    <rect x="22" y="24" width="92" height="18" rx="4" fill="#f23987"/>
    <rect x="22" y="58" width="170" height="12" rx="3" fill="rgba(255,255,255,0.28)"/>
    <rect x="22" y="84" width="138" height="12" rx="3" fill="rgba(255,255,255,0.18)"/>
    <rect x="22" y="114" width="64" height="18" rx="4" fill="rgba(255,255,255,0.12)"/>
    <rect x="98" y="114" width="64" height="18" rx="4" fill="rgba(255,255,255,0.12)"/>
  </g>
  <text x="96" y="500" fill="rgba(255,255,255,0.52)" font-family="Inter, Arial, sans-serif" font-size="24">Case studies, product interfaces, identity, and interactive prototypes.</text>
</svg>
